<?xml version="1.0" encoding="utf-8"?>
<!-- Generator: Adobe Illustrator 24.0.1, SVG Export Plug-In . SVG Version: 6.00 Build 0)  -->
<svg version="1.1" id="Layer_1" xmlns="http://www.w3.org/2000/svg" xmlns:xlink="http://www.w3.org/1999/xlink" x="0px" y="0px"
	 viewBox="0 0 594.83 141.05" style="enable-background:new 0 0 594.83 141.05;" xml:space="preserve">
<style type="text/css">
	.st0{fill:#010100;}
</style>
<g>
	<g>
		<g>
			<path class="st0" d="M312.61,50.98h-16.19v-9.52c0-4.23-0.64-7.12-1.93-8.67c-1.66-2.03-4.91-3.05-9.73-3.05
				c-5.21,0-8.72,1.1-10.53,3.3c-1.28,1.71-1.93,4.77-1.93,9.16c0,2.28,0.08,3.9,0.23,4.88c0.3,1.39,0.87,2.64,1.7,3.78
				c0.91,1.14,2.38,2.4,4.42,3.78c1.66,1.22,4.37,2.98,8.15,5.26l5.09,3.05c5.28,3.26,8.94,5.62,10.99,7.08
				c3.09,2.28,5.43,4.48,7.02,6.6c1.73,2.36,2.98,5.21,3.73,8.55c0.76,3.25,1.14,7.53,1.14,12.81c0,10.1-2.26,17.43-6.79,21.98
				c-4.76,4.89-12.53,7.33-23.32,7.33c-10.64,0-18.11-2.2-22.42-6.6c-3.55-3.5-5.32-9.08-5.32-16.73V89.69h16.08v11.47
				c0,4.48,0.64,7.57,1.92,9.28c1.74,2.36,5.13,3.54,10.19,3.54c5.28,0,8.95-1.3,10.98-3.91c1.65-2.04,2.49-5.13,2.49-9.28
				c0-5.13-1.18-9.28-3.51-12.46c-2.79-3.74-8.57-8.38-17.32-13.92c-8.53-5.46-14-9.68-16.42-12.7c-3.4-4.32-5.1-10.38-5.1-18.2
				c0-8.95,2.27-15.67,6.8-20.14c4.68-4.47,11.7-6.72,21.06-6.72c9.66,0,16.95,1.47,21.85,4.4c4.45,2.7,6.69,6.43,6.69,11.24V50.98z
				"/>
			<path class="st0" d="M327.72,18.86h43.36v13.92h-27.51v30.77h25.81v13.31h-25.81v34.07H372v14.16h-44.28V18.86z"/>
			<path class="st0" d="M446.53,90.91c-0.08,10.42-1.58,18.35-4.53,23.81c-4.6,8.3-12.94,12.46-25.02,12.46
				c-12.23,0-20.61-4.15-25.14-12.46c-2.94-5.28-4.42-13.22-4.42-23.81v-39.2c-0.07-9.93,1.4-17.54,4.42-22.83
				c4.52-8.14,12.9-12.22,25.14-12.22c11.99,0,20.33,4.07,25.02,12.22c3.02,5.37,4.53,12.98,4.53,22.83V90.91z M430.8,46.09
				c0-4.15-1.1-7.6-3.29-10.38c-2.48-3.26-5.96-4.89-10.41-4.89c-4.68,0-8.26,1.72-10.75,5.13c-2.04,2.77-3.07,6.15-3.07,10.13v49.7
				c0,4.47,0.98,8.31,2.95,11.47c2.42,4.07,6.04,6.1,10.87,6.1c5.13,0,8.83-2.03,11.09-6.1c1.74-3.01,2.62-7,2.62-11.97V46.09z"/>
			<path class="st0" d="M524.01,18.75v72.04c0,6.11-0.22,10.79-0.67,14.04c-0.6,4.81-1.78,8.71-3.51,11.72
				c-2.05,3.42-4.95,6.02-8.73,7.81c-4.23,1.95-9.69,2.93-16.41,2.93c-6.79,0-12.31-0.98-16.54-2.93c-3.92-1.79-6.9-4.39-8.94-7.81
				c-1.81-3.01-3.01-6.92-3.62-11.72c-0.45-3.43-0.68-8.1-0.68-14.04V18.75h16.2v79.13c0,5.53,0.63,9.23,1.92,11.11
				c1.81,2.52,5.7,3.79,11.67,3.79c5.73,0,9.47-1.27,11.2-3.79c1.28-1.79,1.93-5.5,1.93-11.11V18.75H524.01z"/>
			<path class="st0" d="M554.65,18.86v91.95h24.79v14.29h-40.98V18.86H554.65z"/>
		</g>
	</g>
	<g>
		<g>
			<path class="st0" d="M16.27,18.54h43.36v13.91H32.12v30.78h25.81v13.3H32.12v34.07h28.42v14.16H16.27V18.54z"/>
			<path class="st0" d="M132.9,18.54v13.8h-21.62v92.43H95.09V32.34h-18v-13.8H132.9z"/>
			<path class="st0" d="M203.5,56.88h-15.85V43.21c0-3.66-1.09-6.63-3.28-8.92c-2.49-2.6-6.11-3.9-10.87-3.9
				c-4.6,0-8.15,1.46-10.64,4.39c-2.56,3.02-3.85,7.21-3.85,12.58v49.21c0,5.13,1.29,9.25,3.85,12.33
				c2.64,3.18,6.19,4.76,10.64,4.76c4.45,0,7.92-1.54,10.41-4.64c2.49-3.17,3.74-7.65,3.74-13.43v-9.77h15.85v4.27
				c0,11.56-1.93,20.23-5.78,26.02c-4.68,7.24-12.68,10.86-24,10.86c-11.85,0-20.12-3.58-24.79-10.75
				c-3.85-5.94-5.77-15.66-5.77-29.18V56.03c0-12.7,1.92-22.14,5.77-28.33c4.75-7.57,12.75-11.35,24-11.35
				c11.1,0,19.17,3.09,24.23,9.28c4.22,5.05,6.34,12.13,6.34,21.25V56.88z"/>
		</g>
	</g>
</g>
</svg>
